<svg xmlns="http://www.w3.org/2000/svg" viewBox="0 0 800 800"><g fill="currentColor"><g transform="translate(0,800) scale(0.1,-0.1)" fill="currentColor"><path d="M340 7078 c-1 -13 -20 -207 -44 -433 -24 -225 -42 -413 -40 -416 4 -7 100 -80 449 -344 138 -104 295 -223 351 -266 l101 -78 6 -83 c3 -46 13 -116 22 -157 8 -41 14 -75 13 -76 -2 -1 -210 21 -463 50 -253 28 -462 47 -463 43 -2 -5 49 -162 114 -349 l118 -341 46 6 c213 30 846 116 851 116 3 0 22 -24 42 -52 20 -29 45 -65 56 -79 l21 -26 -118 -81 c-64 -44 -270 -187 -457 -317 -187 -130 -368 -256 -402 -278 -35 -23 -63 -46 -63 -51 0 -7 335 -608 376 -673 15 -25 -40 -80 698 700 181 191 333 347 338 347 15 0 113 -72 110 -81 -1 -5 -197 -351 -436 -768 l-433 -759 281 -491 c154 -270 283 -491 286 -491 3 0 126 295 275 655 148 360 271 655 274 655 2 0 26 -14 52 -31 l48 -30 -19 -52 c-10 -29 -73 -196 -140 -372 -197 -519 -186 -486 -164 -502 47 -34 560 -343 569 -342 6 1 22 47 36 103 15 55 71 272 124 481 54 209 99 381 100 383 2 2 31 -11 65 -28 l61 -31 -3 -472 c-4 -459 -4 -474 -26 -531 -49 -132 -152 -244 -277 -302 l-75 -35 0 -149 0 -150 1400 0 1400 0 0 149 0 149 -82 41 c-128 62 -220 163 -270 296 -22 59 -22 71 -26 530 l-3 470 67 33 c36 18 67 32 69 30 1 -2 28 -104 60 -228 158 -618 191 -741 196 -743 9 -3 581 347 586 359 3 10 -58 176 -292 794 l-43 115 46 32 c25 18 48 33 51 33 4 0 128 -295 276 -655 149 -360 272 -655 275 -655 3 0 132 221 286 491 l281 491 -433 759 c-239 417 -435 762 -436 767 -3 9 97 82 112 82 4 0 115 -114 246 -252 132 -139 358 -378 503 -530 144 -153 266 -278 270 -278 8 0 391 673 391 686 -1 5 -235 171 -520 368 l-519 360 24 33 c14 18 37 50 52 71 15 20 30 41 34 45 3 5 208 -19 454 -53 245 -34 448 -60 450 -58 6 7 235 671 235 683 0 8 -136 -4 -462 -41 -255 -28 -464 -50 -465 -49 -2 0 4 37 13 81 8 45 18 116 22 159 l7 79 440 333 c242 184 445 339 452 346 9 9 1 111 -33 427 -24 228 -44 423 -44 433 0 45 -102 22 -156 -35 -26 -29 -95 -103 -153 -164 -811 -848 -1006 -1058 -1003 -1078 41 -301 -60 -578 -289 -791 -248 -229 -507 -284 -753 -160 -38 19 -74 32 -80 28 -6 -4 -54 -37 -107 -75 -120 -85 -113 -88 -106 40 12 230 121 394 318 478 l54 22 3 151 3 151 -1401 0 -1401 0 3 -151 3 -151 54 -22 c195 -83 306 -248 318 -473 7 -123 13 -121 -112 -33 -54 39 -101 69 -104 68 -3 -2 -36 -18 -74 -36 -246 -120 -500 -64 -747 164 -228 211 -329 489 -288 791 2 16 -82 110 -357 399 -198 208 -470 494 -605 636 l-245 258 -52 0 c-48 0 -53 -2 -53 -22z m4252 -3064 c289 -99 533 -256 752 -485 l109 -113 -59 -54 c-744 -681 -1895 -715 -2684 -79 -58 47 -115 96 -128 110 l-23 24 103 108 c235 246 587 463 831 512 l32 6 -28 -32 c-198 -235 -149 -654 100 -857 459 -373 1134 28 1017 604 -16 81 -81 227 -115 257 -46 43 -33 43 93 -1z" /></g></g></svg>