<svg xmlns="http://www.w3.org/2000/svg" viewBox="0 0 211.7 211.7"><g fill="currentColor"><g transform="translate(-52.9,-11.5)"><g transform="matrix(2.9,0,0,2.9,-102.9,-434.4)"><path d="m 80.2,168 v 4.5 c 1.4,-0.2 2.8,0.1 3.7,1 0.9,0.9 0.8,1.6 0.8,1.9 0,3.1 0.1,6.2 0.1,9.2 0,1.3 -0,1.9 -0,2.7 h -5.2e-4 c 10e-4,0.8 0,1.4 0,2.7 -0,3 -0.1,6.1 -0.1,9.2 0,0.3 0.1,1 -0.8,1.9 -0.9,0.9 -2.3,1.2 -3.7,1 v 4.5 h 8.6 8.6 v -4.5 c -1.4,0.2 -2.8,-0.1 -3.7,-1 -0.9,-0.9 -0.8,-1.6 -0.8,-1.9 0,-3.1 -0.1,-6.2 -0.1,-9.2 0,-1.3 0,-1.9 0,-2.7 h 0 c -0,-0.8 -0,-1.4 -0,-2.7 0,-3 0.1,-6.1 0.1,-9.2 -0,-0.3 -0.1,-1 0.8,-1.9 0.9,-0.9 2.3,-1.2 3.7,-1 v -4.5 h -8.6 z" stroke-width="0.04212753" fill-opacity="1" fill="currentColor" /><path d="m 88.8,151.3 -3.5,13.8 a 22.4,22.4 0 0 0 -5.8,1.7 l -5.9,-5.8 2.1,8 a 22.4,22.4 0 0 0 -5.2,5.2 l -8,-2.1 5.9,5.9 a 22.4,22.4 0 0 0 -1.8,5.8 l -13.8,3.5 13.8,3.5 a 22.4,22.4 0 0 0 1.7,5.8 l -5.8,5.9 8,-2.1 a 22.4,22.4 0 0 0 5.2,5.2 l -2.1,8 5.9,-5.9 a 22.4,22.4 0 0 0 5.8,1.8 l 3.5,13.8 3.5,-13.8 a 22.4,22.4 0 0 0 5.8,-1.7 l 5.9,5.8 -2.1,-8 a 22.4,22.4 0 0 0 5.2,-5.2 l 8,2.1 -5.9,-5.9 a 22.4,22.4 0 0 0 1.8,-5.8 l 13.8,-3.5 -13.8,-3.5 a 22.4,22.4 0 0 0 -1.7,-5.8 l 5.8,-5.9 -8,2.1 a 22.4,22.4 0 0 0 -5.2,-5.2 l 2.1,-8 -5.9,5.9 a 22.4,22.4 0 0 0 -5.8,-1.8 z m 0,17.5 a 18.4,18.4 0 0 1 18.4,18.4 18.4,18.4 0 0 1 -18.4,18.4 18.4,18.4 0 0 1 -18.4,-18.4 18.4,18.4 0 0 1 18.4,-18.4 z" stroke-width="0.69686025" stroke-linejoin="miter" stroke-linecap="butt" stroke-miterlimit="4" opacity="1" fill-opacity="1" fill="currentColor" /></g></g></g></svg>