<svg xmlns="http://www.w3.org/2000/svg" viewBox="0 0 100 100"><g fill="currentColor"><g transform="translate(0,100) scale(0.1,-0.1)" fill="currentColor"><path d="M440 922 c0 -36 -2 -38 -40 -49 -39 -10 -41 -9 -56 18 -8 16 -19 29 -25 29 -6 0 -31 -12 -55 -26 l-45 -26 20 -33 19 -33 -30 -30 -30 -30 -34 20 -33 19 -15 -25 c-9 -14 -23 -37 -31 -51 -15 -24 -15 -26 18 -45 33 -20 34 -21 24 -60 -11 -38 -13 -40 -49 -40 l-38 0 0 -60 0 -60 38 0 c36 0 38 -2 49 -40 10 -39 9 -40 -23 -59 l-33 -20 25 -45 c14 -25 29 -48 33 -50 4 -3 21 3 37 13 29 18 29 18 60 -12 l32 -29 -19 -33 -20 -33 45 -26 c24 -14 49 -26 55 -26 6 0 18 14 26 30 13 25 19 29 35 20 10 -5 28 -10 39 -10 18 0 21 -6 21 -45 l0 -45 60 0 60 0 0 45 c0 39 3 45 21 45 11 0 30 5 42 11 16 9 22 9 25 1 2 -7 11 -21 21 -33 l17 -21 47 23 c26 13 47 28 47 33 0 6 -7 20 -15 30 -8 11 -15 23 -15 28 0 4 13 20 29 37 l28 29 31 -20 31 -19 30 48 c31 48 31 48 11 65 -11 9 -25 18 -32 20 -8 3 -8 16 -2 43 9 37 13 40 47 43 l37 3 0 60 0 59 -34 0 c-19 0 -37 3 -40 8 -2 4 -7 23 -11 42 -5 31 -3 37 24 52 l30 17 -25 45 c-14 25 -29 48 -33 50 -4 3 -20 -3 -35 -14 l-29 -18 -28 29 c-16 16 -29 33 -29 37 0 5 7 17 15 28 8 10 15 22 15 26 0 4 -21 19 -46 34 l-47 28 -18 -22 c-9 -12 -19 -27 -21 -34 -3 -8 -9 -8 -25 1 -12 6 -31 11 -42 11 -18 0 -21 6 -21 40 l0 40 -60 0 -60 0 0 -38z m28 -182 c59 -58 60 -61 50 -91 -10 -30 -8 -34 45 -87 52 -52 57 -55 88 -46 30 9 35 6 91 -49 l60 -58 -9 -46 -8 -45 -37 36 c-31 30 -42 35 -67 30 -17 -4 -34 -11 -39 -18 -5 -6 -14 -25 -19 -42 -10 -27 -8 -33 23 -60 18 -16 33 -32 34 -35 0 -3 -18 -11 -40 -18 l-40 -12 -61 61 c-59 59 -60 62 -50 93 11 30 9 33 -45 88 -54 54 -57 56 -89 46 -31 -9 -35 -7 -94 50 l-61 60 13 42 12 43 36 -36 c33 -33 37 -35 72 -25 30 8 38 16 48 48 11 38 11 40 -25 73 l-36 33 32 12 c18 6 38 12 45 12 6 1 38 -26 71 -59z" /></g></g></svg>